<svg width="237" height="237" viewBox="0 0 237 237" fill="none" xmlns="http://www.w3.org/2000/svg">
<path d="M177.75 39.5H59.25C48.3424 39.5 39.5 48.3424 39.5 59.25V177.75C39.5 188.658 48.3424 197.5 59.25 197.5H177.75C188.658 197.5 197.5 188.658 197.5 177.75V59.25C197.5 48.3424 188.658 39.5 177.75 39.5Z" stroke="#D9D9D9" stroke-width="2" stroke-linecap="round" stroke-linejoin="round"/>
<path d="M79 108.625V158" stroke="#D9D9D9" stroke-width="2" stroke-linecap="round" stroke-linejoin="round"/>
<path d="M79 79V79.0988" stroke="#D9D9D9" stroke-width="2" stroke-linecap="round" stroke-linejoin="round"/>
<path d="M118.5 158V108.625" stroke="#D9D9D9" stroke-width="2" stroke-linecap="round" stroke-linejoin="round"/>
<path d="M158 158V128.375C158 123.137 155.919 118.114 152.215 114.41C148.511 110.706 143.488 108.625 138.25 108.625C133.012 108.625 127.989 110.706 124.285 114.41C120.581 118.114 118.5 123.137 118.5 128.375" stroke="#D9D9D9" stroke-width="2" stroke-linecap="round" stroke-linejoin="round"/>
</svg>
