<svg width="247" height="247" viewBox="0 0 247 247" fill="none" xmlns="http://www.w3.org/2000/svg">
<path d="M154.375 216.125V180.104C154.375 169.812 155.404 165.696 149.229 159.521C178.046 156.433 205.833 145.112 205.833 97.7701C205.821 85.4713 201.022 73.66 192.454 64.8368C196.473 54.1538 196.103 42.3148 191.425 31.9035C191.425 31.9035 180.104 28.816 155.404 45.2826C134.483 39.8341 112.517 39.8341 91.5958 45.2826C66.8958 28.816 55.575 31.9035 55.575 31.9035C50.8972 42.3148 50.5272 54.1538 54.5458 64.8368C45.9775 73.66 41.1792 85.4713 41.1667 97.7701C41.1667 145.112 68.9542 156.433 97.7708 159.521C91.5958 165.696 91.5958 171.871 92.625 180.104V216.125M92.625 195.541C48.3708 209.95 48.3708 169.812 30.875 164.666L92.625 195.541Z" stroke="#D9D9D9" stroke-width="2" stroke-linecap="round" stroke-linejoin="round"/>
</svg>
