<svg width="19" height="19" viewBox="0 0 19 19" fill="none" xmlns="http://www.w3.org/2000/svg">
<path d="M9.99073 -0.00109862C9.43873 -0.00109862 8.99073 0.446602 8.99073 0.998902V11.5609L5.99073 8.59291L4.58472 9.99891L9.27174 14.7179C9.66274 15.1079 10.3187 15.1079 10.7097 14.7179L15.3967 9.99891L13.9907 8.59291L10.9907 11.5609V0.998902C10.9907 0.446602 10.5427 -0.00119862 9.99073 -0.00109862ZM1.99072 11.9989C1.43872 11.9989 0.990723 12.4469 0.990723 12.9989V14.9989C0.990723 17.2079 2.78172 18.9989 4.99073 18.9989H14.9907C17.1997 18.9989 18.9907 17.2079 18.9907 14.9989V12.9989C18.9907 12.4469 18.5427 11.9989 17.9907 11.9989C17.4387 11.9989 16.9907 12.4469 16.9907 12.9989V14.9989C16.9907 16.1039 16.0957 16.9989 14.9907 16.9989H4.99073C3.88573 16.9989 2.99072 16.1039 2.99072 14.9989V12.9989C2.99072 12.4469 2.54272 11.9989 1.99072 11.9989Z" fill="white"/>
</svg>
