<svg width="40" height="32" viewBox="0 0 40 32" fill="none" xmlns="http://www.w3.org/2000/svg">
<path fill-rule="evenodd" clip-rule="evenodd" d="M20 9.45374C16.5191 9.45374 13.6975 12.2754 13.6975 15.7562C13.6975 19.2371 16.5191 22.0588 20 22.0588C23.4809 22.0588 26.3025 19.2371 26.3025 15.7562C26.3025 12.2754 23.4809 9.45374 20 9.45374ZM15.7983 15.7562C15.7983 13.4357 17.6794 11.5546 20 11.5546C22.3206 11.5546 24.2017 13.4357 24.2017 15.7562C24.2017 18.0768 22.3206 19.9579 20 19.9579C17.6794 19.9579 15.7983 18.0768 15.7983 15.7562Z" fill="white"/>
<path fill-rule="evenodd" clip-rule="evenodd" d="M20 0C12.2398 0 7.23417 3.89979 4.20556 7.75438C2.69632 9.67522 1.67061 11.5912 1.0217 13.0256C0.696659 13.7441 0.464537 14.3454 0.3125 14.7712C0.236428 14.984 0.180294 15.1533 0.1425 15.2718C0.123613 15.3311 0.109286 15.3777 0.0993488 15.4105C0.0943698 15.4271 0.090504 15.4401 0.0876889 15.4496C0.0862813 15.4544 0.0851472 15.4584 0.0842859 15.4613L0.0831724 15.4651L0.0827522 15.4666C0.0826051 15.4672 0.0824579 15.4676 1.09246 15.7563L0.0824577 15.4676L0 15.7563L0.0824577 16.0449L1.09246 15.7563C0.0824579 16.0449 0.0826051 16.0454 0.0827522 16.046L0.0831724 16.0475L0.0842859 16.0512C0.0851472 16.0542 0.0862813 16.0582 0.0876889 16.0628C0.090504 16.0725 0.0943698 16.0855 0.0993488 16.1021C0.109286 16.1349 0.123613 16.1815 0.1425 16.2407C0.180294 16.3592 0.236428 16.5286 0.3125 16.7414C0.464537 17.1672 0.696659 17.7685 1.0217 18.487C1.67061 19.9214 2.69632 21.8374 4.20556 23.7582C7.23417 27.6128 12.2398 31.5126 20 31.5126C27.7603 31.5126 32.7658 27.6128 35.7943 23.7582C37.3036 21.8374 38.3294 19.9214 38.9784 18.487C39.3034 17.7685 39.5355 17.1672 39.6876 16.7414C39.7637 16.5286 39.8197 16.3592 39.8576 16.2407C39.8765 16.1815 39.8908 16.1349 39.9006 16.1021C39.9057 16.0855 39.9095 16.0725 39.9124 16.0628C39.9137 16.0582 39.9149 16.0542 39.9158 16.0512L39.9172 16.046C39.9174 16.0454 39.9174 16.0449 38.9076 15.7563L39.9174 16.0449L40 15.7563L39.9174 15.4676L38.9076 15.7563C39.9174 15.4676 39.9174 15.4672 39.9172 15.4666L39.9158 15.4613L39.9134 15.4533L39.9124 15.4496C39.9109 15.4447 39.909 15.4389 39.9071 15.4321C39.9053 15.4258 39.9032 15.4185 39.9006 15.4105C39.8908 15.3777 39.8765 15.3311 39.8576 15.2718C39.8197 15.1533 39.7637 14.984 39.6876 14.7712C39.5355 14.3454 39.3034 13.7441 38.9784 13.0256C38.3294 11.5912 37.3036 9.67522 35.7943 7.75438C32.7658 3.89979 27.7603 0 20 0ZM2.29094 16.0349C2.25277 15.9279 2.22069 15.8346 2.19441 15.7563C2.22069 15.6779 2.25277 15.5846 2.29094 15.4777C2.42611 15.0991 2.63714 14.5517 2.9358 13.8914C3.53426 12.5685 4.47808 10.808 5.85749 9.05232C8.60617 5.55399 13.0544 2.10084 20 2.10084C26.9456 2.10084 31.3939 5.55399 34.1424 9.05232C35.5219 10.808 36.4658 12.5685 37.0643 13.8914C37.3628 14.5517 37.574 15.0991 37.709 15.4777C37.7473 15.5846 37.7792 15.6779 37.8057 15.7563C37.7792 15.8346 37.7473 15.9279 37.709 16.0349C37.574 16.4134 37.3628 16.9609 37.0643 17.6212C36.4658 18.9441 35.5219 20.7046 34.1424 22.4603C31.3939 25.9586 26.9456 29.4117 20 29.4117C13.0544 29.4117 8.60617 25.9586 5.85749 22.4603C4.47808 20.7046 3.53426 18.9441 2.9358 17.6212C2.63714 16.9609 2.42611 16.4134 2.29094 16.0349Z" fill="white"/>
</svg>
